<svg width="1440" height="333" viewBox="0 0 1440 333" fill="none" xmlns="http://www.w3.org/2000/svg">
<path d="M1578 439L1570.08 23.2746C1559.66 21.3419 1542.38 20.4659 1543.28 14.1658C1543.78 26.6744 1507.28 4.64182 1507.72 15.5868C1507.75 16.3686 1471.68 5.28111 1472.06 14.6626C1472.49 25.6076 1437.33 37.1919 1437.27 35.6283C1437.24 34.8465 1401.17 23.759 1401.3 26.8862C1400.92 17.5047 1366.19 11.0621 1366.66 22.7889C1366.72 24.3524 1336.42 13.8175 1336.33 11.4721C1336.3 10.6903 1298.07 31.7936 1298.75 20.021C1299 26.2753 1269.99 -9.36856 1269.32 2.4041C1268.94 -6.97735 1234.22 15.552 1234.09 12.4248C1234.28 17.1156 1190.09 4.00356 1190.06 3.22177C1189.93 0.0946215 1156.45 24.9235 1156.48 25.7053C1156.54 27.2689 1111.83 29.8384 1111.61 24.3659C1111.3 16.548 1077.88 42.9405 1077.94 44.5041C1078.22 51.5402 1037.66 42.9814 1037.6 41.4178C1037.44 37.5089 1001.01 46.0118 1001.07 47.5754C1000.85 42.1029 962.407 57.7337 962.47 59.2972C962.407 57.7337 923.492 61.6376 923.399 59.2923C922.93 47.5655 886.31 51.3777 886.279 50.5959C886.372 52.9413 848.511 54.4541 849.315 45.8086C849.409 48.1539 810.119 42.6764 810.244 45.8036C810.494 52.0579 777.619 34.5785 777.338 27.5424C777.276 25.9789 739.383 26.7098 739.321 25.1463C739.571 31.4006 699.719 11.8509 700.25 25.1413C700.406 29.0502 661.116 23.5727 661.21 25.9181C661.272 27.4817 622.607 37.64 623.317 26.6491C623.505 31.3398 588.179 10.0432 588.273 12.3886C588.242 11.6068 549.756 -2.51624 550.162 7.64699C550.193 8.42878 512.863 23.2319 512.894 24.0137C513.207 31.8316 472.176 11.546 472.207 12.3278C472.488 19.3639 440.208 16.7385 440.426 22.211C440.582 26.1199 406.873 16.5043 407.185 24.3222C406.998 19.6314 375.833 16.1784 375.927 18.5238C376.208 25.5599 339.088 16.8636 339.369 23.8996C339.463 26.245 309.968 7.06457 309.999 7.84636C309.843 3.93742 271.303 17.2228 271.116 12.5321C271.459 21.1318 235.393 10.0442 234.651 20.2533C234.402 13.999 196.978 26.4568 196.946 25.675C196.478 13.9482 157.157 7.68893 157.875 25.67C157.969 28.0154 122.652 35.6908 122.527 32.5636C123.058 45.854 86.8897 3.44913 87.6081 21.4302C87.6081 21.4302 54.7024 3.1691 54.8899 7.85982C54.7024 3.1691 6.7653 11.3487 6.7653 11.3487C6.35922 1.18549 -21.2075 1.50388 -26.8816 3.29667L-26.8816 444.5L810.244 433.5L1578 439Z" fill="#F4F4F4"/>
</svg>
