<svg width="1440" height="1346" viewBox="0 0 1440 1346" fill="none" xmlns="http://www.w3.org/2000/svg">
<path d="M1587.07 1281.28L1561.08 84.2747C1550.66 82.3419 1533.38 81.466 1534.28 75.1659C1534.78 87.6745 1498.28 65.6419 1498.72 76.5869C1498.75 77.3687 1462.68 66.2812 1463.06 75.6626C1463.49 86.6077 1428.33 98.192 1428.27 96.6284C1428.24 95.8466 1392.17 84.7591 1392.3 87.8862C1391.92 78.5048 1357.19 72.0621 1357.66 83.789C1357.72 85.3525 1327.42 74.8176 1327.33 72.4722C1327.3 71.6904 1289.07 92.7937 1289.75 81.0211C1290 87.2754 1260.99 51.6315 1260.32 63.4042C1259.94 54.0227 1225.22 76.5521 1225.09 73.4249C1225.28 78.1157 1181.09 65.0036 1181.06 64.2219C1180.93 61.0947 1147.45 85.9236 1147.48 86.7054C1147.54 88.2689 1102.83 90.8385 1102.61 85.366C1102.3 77.5481 1068.88 103.941 1068.94 105.504C1069.22 112.54 1028.66 103.981 1028.6 102.418C1028.44 98.5089 992.01 107.012 992.072 108.576C991.854 103.103 953.407 118.734 953.47 120.297C953.407 118.734 914.492 122.638 914.399 120.292C913.93 108.566 877.31 112.378 877.279 111.596C877.372 113.941 839.511 115.454 840.315 106.809C840.409 109.154 801.119 103.677 801.244 106.804C801.494 113.058 768.619 95.5786 768.338 88.5425C768.276 86.979 730.383 87.7099 730.321 86.1463C730.571 92.4007 690.719 72.851 691.25 86.1414C691.406 90.0503 652.116 84.5728 652.21 86.9182C652.272 88.4818 613.607 98.64 614.317 87.6492C614.505 92.3399 579.179 71.0433 579.273 73.3887C579.242 72.6069 540.756 58.4838 541.162 68.6471C541.193 69.4289 503.863 84.232 503.894 85.0138C504.207 92.8317 463.176 72.5461 463.207 73.3279C463.488 80.3639 431.208 77.7386 431.426 83.2111C431.582 87.12 397.873 77.5044 398.186 85.3223C397.998 80.6315 366.833 77.1785 366.927 79.5239C367.208 86.56 330.088 77.8636 330.369 84.8997C330.463 87.2451 300.968 68.0647 300.999 68.8464C300.843 64.9375 262.303 78.2229 262.116 73.5322C262.459 82.1318 226.393 71.0443 225.651 81.2534C225.401 74.9991 187.978 87.4569 187.946 86.6751C187.478 74.9483 148.157 68.689 148.875 86.6701C148.969 89.0155 113.652 96.6908 113.527 93.5637C114.058 106.854 77.8897 64.4492 78.6081 82.4303C78.6081 82.4303 45.7025 64.1692 45.8899 68.8599C45.7025 64.1692 -2.23468 72.3488 -2.23468 72.3488C-2.64075 62.1856 -30.2075 62.504 -35.8816 64.2967L-9.27825 1334.1L1587.07 1281.28Z" fill="#FEF5EA"/>
</svg>
