<svg width="1440" height="1346" viewBox="0 0 1440 1346" fill="none" xmlns="http://www.w3.org/2000/svg">
  <path
    d="M1596.07 1281.28L1570.08 84.2747C1559.66 82.3419 1542.38 81.466 1543.28 75.1658C1543.78 87.6744 1507.28 65.6419 1507.72 76.5869C1507.75 77.3687 1471.68 66.2812 1472.06 75.6626C1472.49 86.6076 1437.33 98.192 1437.27 96.6284C1437.24 95.8466 1401.17 84.7591 1401.3 87.8862C1400.92 78.5048 1366.19 72.0621 1366.66 83.7889C1366.72 85.3525 1336.42 74.8175 1336.33 72.4722C1336.3 71.6904 1298.07 92.7937 1298.75 81.021C1299 87.2753 1269.99 51.6315 1269.32 63.4042C1268.94 54.0227 1234.22 76.5521 1234.09 73.4249C1234.28 78.1156 1190.09 65.0036 1190.06 64.2218C1189.93 61.0947 1156.45 85.9235 1156.48 86.7053C1156.54 88.2689 1111.83 90.8385 1111.61 85.366C1111.3 77.5481 1077.88 103.941 1077.94 105.504C1078.22 112.54 1037.66 103.981 1037.6 102.418C1037.44 98.5089 1001.01 107.012 1001.07 108.575C1000.85 103.103 962.407 118.734 962.47 120.297C962.407 118.734 923.492 122.638 923.399 120.292C922.93 108.566 886.31 112.378 886.279 111.596C886.372 113.941 848.511 115.454 849.315 106.809C849.409 109.154 810.119 103.676 810.244 106.804C810.494 113.058 777.619 95.5786 777.338 88.5425C777.276 86.9789 739.383 87.7099 739.321 86.1463C739.571 92.4006 699.719 72.8509 700.25 86.1413C700.406 90.0503 661.116 84.5728 661.21 86.9182C661.272 88.4817 622.607 98.64 623.317 87.6491C623.505 92.3399 588.179 71.0433 588.273 73.3886C588.242 72.6068 549.756 58.4838 550.162 68.647C550.193 69.4288 512.863 84.232 512.894 85.0138C513.207 92.8317 472.176 72.546 472.207 73.3278C472.488 80.3639 440.208 77.7385 440.426 83.2111C440.582 87.12 406.873 77.5043 407.186 85.3222C406.998 80.6315 375.833 77.1785 375.927 79.5238C376.208 86.5599 339.088 77.8636 339.369 84.8997C339.463 87.2451 309.968 68.0646 309.999 68.8464C309.843 64.9375 271.303 78.2229 271.116 73.5321C271.459 82.1318 235.393 71.0443 234.651 81.2534C234.401 74.9991 196.978 87.4568 196.946 86.675C196.478 74.9482 157.157 68.689 157.875 86.6701C157.969 89.0155 122.652 96.6908 122.527 93.5637C123.058 106.854 86.8897 64.4492 87.6081 82.4303C87.6081 82.4303 54.7025 64.1692 54.8899 68.8599C54.7025 64.1692 6.76532 72.3488 6.76532 72.3488C6.35925 62.1855 -21.2075 62.5039 -26.8816 64.2967L-0.278246 1334.1L1596.07 1281.28Z"
    fill="white" />
</svg>
