<svg width="1440" height="588" viewBox="0 0 1440 588" fill="none" xmlns="http://www.w3.org/2000/svg">
<path d="M1570.08 587.5L1570.08 23.2747C1559.66 21.3419 1542.38 20.4659 1543.28 14.1658C1543.78 26.6744 1507.28 4.64185 1507.72 15.5869C1507.75 16.3687 1471.68 5.28114 1472.06 14.6626C1472.49 25.6076 1437.33 37.1919 1437.27 35.6284C1437.24 34.8466 1401.17 23.759 1401.3 26.8862C1400.92 17.5047 1366.19 11.0621 1366.66 22.7889C1366.72 24.3525 1336.42 13.8175 1336.33 11.4722C1336.3 10.6904 1298.07 31.7937 1298.75 20.021C1299 26.2753 1269.99 -9.36852 1269.32 2.40413C1268.94 -6.97732 1234.22 15.552 1234.09 12.4249C1234.28 17.1156 1190.09 4.00359 1190.06 3.22181C1189.93 0.0946561 1156.45 24.9235 1156.48 25.7053C1156.54 27.2689 1111.83 29.8385 1111.61 24.366C1111.3 16.5481 1077.88 42.9405 1077.94 44.5041C1078.22 51.5402 1037.66 42.9814 1037.6 41.4178C1037.44 37.5089 1001.01 46.0119 1001.07 47.5755C1000.85 42.1029 962.407 57.7337 962.47 59.2973C962.407 57.7337 923.492 61.6377 923.399 59.2923C922.93 47.5655 886.31 51.3778 886.279 50.596C886.372 52.9413 848.511 54.4541 849.315 45.8086C849.409 48.154 810.119 42.6765 810.244 45.8036C810.494 52.0579 777.619 34.5786 777.338 27.5425C777.276 25.9789 739.383 26.7099 739.321 25.1463C739.571 31.4006 699.719 11.8509 700.25 25.1413C700.406 29.0503 661.116 23.5728 661.21 25.9181C661.272 27.4817 622.607 37.64 623.317 26.6491C623.505 31.3398 588.18 10.0432 588.273 12.3886C588.242 11.6068 549.756 -2.51621 550.162 7.64703C550.193 8.42882 512.863 23.232 512.894 24.0138C513.207 31.8316 472.176 11.546 472.207 12.3278C472.488 19.3639 440.208 16.7385 440.426 22.211C440.582 26.12 406.873 16.5043 407.186 24.3222C406.998 19.6315 375.833 16.1785 375.927 18.5238C376.208 25.5599 339.088 16.8636 339.369 23.8997C339.463 26.245 309.968 7.06461 309.999 7.8464C309.843 3.93746 271.303 17.2229 271.116 12.5321C271.459 21.1318 235.393 10.0443 234.651 20.2533C234.401 13.999 196.978 26.4568 196.946 25.675C196.478 13.9482 157.157 7.68897 157.875 25.6701C157.969 28.0154 122.652 35.6908 122.527 32.5636C123.058 45.854 86.8897 3.44917 87.6081 21.4303C87.6081 21.4303 54.7025 3.16914 54.8899 7.85986C54.7025 3.16914 6.7653 11.3488 6.7653 11.3488C6.35923 1.18553 -21.2075 1.50392 -26.8816 3.2967L-1.5 587.5L1570.08 587.5Z" fill="white"/>
</svg>
