<svg width="87" height="100" viewBox="0 0 87 100" fill="none" xmlns="http://www.w3.org/2000/svg">
<path d="M66.4108 41.7822C66.4108 40.9813 65.7617 40.332 64.9606 40.332C64.1595 40.332 63.5104 40.9813 63.5104 41.7822V53.5013H54.06C53.2589 53.5013 52.6098 54.1506 52.6098 54.9515C52.6098 55.7524 53.2589 56.4017 54.06 56.4017H63.5104V66.6706H54.06C53.2589 66.6706 52.6098 67.3199 52.6098 68.1208C52.6098 68.9216 53.2589 69.5709 54.06 69.5709H63.4916C63.2969 73.4795 61.5979 75.2394 59.8047 77.0959C59.0142 77.9142 58.1785 78.78 57.4842 79.8398H50.5405C49.7394 79.8398 49.0903 80.4891 49.0903 81.29C49.0903 82.0909 49.7394 82.7402 50.5405 82.7402H56.2082C56.015 83.5183 55.9033 84.3838 55.9039 85.362V85.3815C55.9068 91.3706 55.907 83.5442 55.907 96.4165C55.907 96.6893 55.685 96.9113 55.412 96.9113H43.264C42.4629 96.9113 41.8138 97.5606 41.8138 98.3615C41.8138 99.1623 42.4629 99.8116 43.264 99.8116H55.412C57.2842 99.8116 58.8073 98.2886 58.8073 96.4165C58.8073 81.4778 58.8079 92.656 58.8042 85.3612C58.8037 84.3232 58.9636 83.4779 59.2391 82.7404H73.5088C74.1192 84.5889 75.8618 85.927 77.9121 85.927C80.4689 85.927 82.5489 83.8468 82.5489 81.2902C82.5489 78.7336 80.4687 76.6535 77.9121 76.6535C75.8618 76.6535 74.1192 77.9915 73.5088 79.84H61.1955C61.4188 79.6006 61.6509 79.3595 61.8908 79.1109C63.8115 77.1226 66.1776 74.669 66.3932 69.5711H77.0281C77.6385 71.4196 79.3811 72.7577 81.4314 72.7577C83.9882 72.7577 86.0682 70.6775 86.0682 68.1209C86.0682 65.5644 83.988 63.4842 81.4314 63.4842C79.3811 63.4842 77.6385 64.8224 77.0281 66.6708H66.4108V56.4019H77.0281C77.6385 58.2504 79.3811 59.5884 81.4314 59.5884C83.9882 59.5884 86.0682 57.5083 86.0682 54.9517C86.0682 52.3951 83.988 50.3149 81.4314 50.3149C79.3811 50.3149 77.6385 51.6532 77.0281 53.5015H66.4108V41.7822ZM77.9121 79.5537C78.8696 79.5537 79.6485 80.3325 79.6485 81.29C79.6485 82.2475 78.8696 83.0264 77.9121 83.0264C76.9546 83.0264 76.1758 82.2473 76.1758 81.29C76.1758 80.3327 76.9546 79.5537 77.9121 79.5537ZM81.4314 66.3844C82.389 66.3844 83.1678 67.1634 83.1678 68.1208C83.1678 69.0781 82.389 69.8571 81.4314 69.8571C80.4739 69.8571 79.6951 69.0781 79.6951 68.1208C79.6951 67.1634 80.4739 66.3844 81.4314 66.3844ZM81.4314 53.2151C82.389 53.2151 83.1678 53.9942 83.1678 54.9515C83.1678 55.9088 82.389 56.6878 81.4314 56.6878C80.4739 56.6878 79.6951 55.9088 79.6951 54.9515C79.6951 53.9942 80.4739 53.2151 81.4314 53.2151Z" fill="#6B3A00"/>
<path d="M11.8183 71.5083C11.8226 71.5185 11.8274 71.5288 11.832 71.539C13.7521 75.6916 16.423 77.9241 19.3578 80.8305C20.7146 82.1743 21.0162 84.6808 21.0475 88.0307C21.0473 88.0398 21.0473 88.0489 21.0473 88.058V96.4163C21.0473 98.2884 22.5704 99.8115 24.4425 99.8115H36.4963C37.2974 99.8115 37.9465 99.1622 37.9465 98.3613C37.9465 97.5604 37.2974 96.9111 36.4963 96.9111H24.4425C24.1697 96.9111 23.9477 96.6892 23.9477 96.4163V88.098C23.9483 88.0804 23.9483 88.0629 23.9483 88.0452C23.9195 84.7508 23.6963 81.0453 21.3985 78.7696C18.4492 75.8486 16.2609 74.066 14.4669 70.3266L4.00411 46.3829C4.00025 46.374 3.99638 46.3653 3.99232 46.3564C2.9826 44.1664 4.13057 42.2353 5.62407 41.3681C7.12415 40.497 9.36285 40.4562 11.1474 42.9544C11.1559 42.9666 11.1648 42.9786 11.1739 42.9904L19.6404 54.1048C20.0167 54.599 20.5427 54.9084 21.1146 55.0045C21.6906 55.1656 25.5214 56.3095 29.2819 59.188C34.6091 63.266 37.3103 68.7657 37.3103 75.5344C37.3103 76.3353 37.9594 76.9846 38.7605 76.9846C39.5616 76.9846 40.2107 76.3353 40.2107 75.5344C40.2107 64.6374 33.5884 56.6276 23.8644 52.8754C23.8696 52.8099 23.8725 52.7438 23.8725 52.6769V14.0378C23.8725 11.9024 25.558 10.1186 27.6296 10.0618C29.8411 10.0049 31.6066 11.7711 31.6066 13.9274V46.1721C31.6066 46.973 32.2557 47.6223 33.0568 47.6223C33.8579 47.6223 34.507 46.973 34.507 46.1721C34.507 44.3578 34.507 9.48113 34.507 7.68947C34.507 5.55401 36.1925 3.77028 38.2644 3.71343C40.4667 3.65407 42.2412 5.41654 42.2412 7.57906V46.1723C42.2412 46.9732 42.8903 47.6225 43.6913 47.6225C44.4924 47.6225 45.1415 46.9732 45.1415 46.1723V13.9272C45.1415 11.7583 46.9218 10.0042 49.118 10.0616C51.1898 10.1184 52.8755 11.9022 52.8755 14.0376V46.1717C52.8755 46.9726 53.5246 47.6219 54.3257 47.6219C55.1268 47.6219 55.7759 46.9726 55.7759 46.1717V20.0598C55.7759 17.9185 57.5275 16.1389 59.7525 16.1942C61.8243 16.251 63.51 18.0347 63.51 20.1702V35.0145C63.51 35.8154 64.1591 36.4647 64.9602 36.4647C65.7613 36.4647 66.4104 35.8154 66.4104 35.0145V20.1702C66.4104 16.4786 63.4594 13.3943 59.8322 13.2947C58.3574 13.253 56.9548 13.6786 55.7759 14.5036V14.0376C55.7759 10.346 52.8248 7.26176 49.1976 7.16218C47.7264 7.12022 46.3206 7.546 45.1415 8.37086V7.57848C45.1415 3.77589 42.0147 0.709027 38.1847 0.813634C34.5577 0.913214 31.6066 3.99748 31.6066 7.68908V8.37106C30.4275 7.546 29.0234 7.12157 27.5502 7.16218C23.923 7.26176 20.9721 10.346 20.9721 14.0376V51.0666L13.494 41.2498C10.763 37.4441 6.84358 37.3054 4.1675 38.8598C1.49567 40.4114 -0.32712 43.8955 1.35162 47.5565L11.8183 71.5083Z" fill="#6B3A00"/>
</svg>
