<svg width="66" height="94" viewBox="0 0 66 94" fill="none" xmlns="http://www.w3.org/2000/svg">
<path d="M15.9183 42.6707V64.5166C13.6127 63.3695 11.0717 62.775 8.49643 62.7801H1.99646C1.5862 62.7801 1.19275 62.943 0.902654 63.2331C0.612559 63.5232 0.449585 63.9167 0.449585 64.3269V77.0144C0.454549 81.4428 2.21594 85.6885 5.34731 88.8198C8.47868 91.9512 12.7243 93.7126 17.1527 93.7176H48.7152C53.1436 93.7126 57.3892 91.9512 60.5206 88.8198C63.652 85.6885 65.4134 81.4428 65.4183 77.0144V64.3269C65.4183 63.9167 65.2554 63.5232 64.9653 63.2331C64.6752 62.943 64.2817 62.7801 63.8715 62.7801H57.3715C54.7963 62.7749 52.2552 63.3694 49.9496 64.5164V42.6707C49.9473 40.6201 49.1317 38.6542 47.6817 37.2042C46.2317 35.7542 44.2658 34.9386 42.2152 34.9363V31.8426C43.3096 31.8421 44.3686 31.4549 45.2052 30.7494C46.0417 30.0438 46.6021 29.0653 46.7871 27.9867C46.9722 26.9081 46.7701 25.7988 46.2166 24.8547C45.6631 23.9107 44.7937 23.1926 43.7621 22.8274V14.8269C43.7607 13.5966 43.2713 12.417 42.4014 11.547C41.5314 10.6771 40.3518 10.1877 39.1215 10.1863V7.09256C39.1215 5.45153 38.4696 3.87772 37.3092 2.71734C36.1488 1.55696 34.575 0.90506 32.934 0.90506C31.2929 0.90506 29.7191 1.55696 28.5587 2.71734C27.3984 3.87772 26.7465 5.45153 26.7465 7.09256V10.1863C25.5161 10.1877 24.3366 10.6771 23.4666 11.547C22.5966 12.417 22.1072 13.5966 22.1058 14.8269V22.8274C21.0742 23.1926 20.2048 23.9107 19.6513 24.8547C19.0978 25.7988 18.8957 26.9081 19.0808 27.9867C19.2659 29.0653 19.8262 30.0438 20.6628 30.7494C21.4993 31.4549 22.5583 31.8421 23.6527 31.8426V34.9363C21.6021 34.9386 19.6362 35.7542 18.1862 37.2042C16.7362 38.6542 15.9206 40.6201 15.9183 42.6707ZM19.0121 81.3426V50.4051H46.8558V81.3426H19.0121ZM3.54333 77.0144V65.8738H8.49643C11.1324 65.8673 13.7126 66.633 15.9183 68.0764V78.2813L11.0028 71.1808C10.7692 70.8434 10.4112 70.6127 10.0076 70.5393C9.6039 70.4659 9.18761 70.5559 8.85028 70.7894C8.51294 71.0229 8.2822 71.3809 8.20881 71.7846C8.13541 72.1882 8.22538 72.6045 8.45892 72.9419L15.9183 83.7164V85.9832C15.9166 87.6576 16.4612 89.287 17.4695 90.6238H17.1527C13.5446 90.6197 10.0853 89.1846 7.53396 86.6332C4.98259 84.0818 3.54743 80.6226 3.54333 77.0144ZM23.6527 90.6238C22.4224 90.6224 21.2428 90.1331 20.3728 89.2631C19.5028 88.3931 19.0135 87.2135 19.0121 85.9832V84.4363H46.8558V85.9832C46.8545 87.2135 46.3651 88.3931 45.4951 89.2631C44.6251 90.1331 43.4456 90.6224 42.2152 90.6238H23.6527ZM57.3715 65.8738H62.3246V77.0144C62.3205 80.6226 60.8853 84.0818 58.334 86.6332C55.7826 89.1846 52.3234 90.6197 48.7152 90.6238H48.3985C49.4067 89.287 49.9513 87.6576 49.9496 85.9832V83.7164L57.409 72.9419C57.6425 72.6045 57.7325 72.1882 57.6591 71.7846C57.5857 71.3809 57.355 71.0229 57.0176 70.7894C56.8506 70.6738 56.6624 70.5922 56.4639 70.5492C56.2653 70.5063 56.0602 70.5029 55.8604 70.5393C55.4567 70.6127 55.0987 70.8434 54.8652 71.1808L49.9496 78.2811V68.0764C52.1553 66.633 54.7355 65.8673 57.3715 65.8738ZM46.8558 42.6707V47.3113H19.0121V42.6707C19.0135 41.4403 19.5028 40.2608 20.3728 39.3908C21.2428 38.5208 22.4224 38.0314 23.6527 38.0301H42.2152C43.4456 38.0314 44.6251 38.5208 45.4951 39.3908C46.3651 40.2608 46.8545 41.4403 46.8558 42.6707ZM29.8402 7.09256C29.8402 6.27205 30.1662 5.48514 30.7463 4.90495C31.3265 4.32476 32.1134 3.99881 32.934 3.99881C33.7545 3.99881 34.5414 4.32476 35.1216 4.90495C35.7018 5.48514 36.0277 6.27205 36.0277 7.09256V10.1863H29.8402V7.09256ZM26.7465 13.2801H39.1215C39.5316 13.2805 39.9248 13.4436 40.2148 13.7336C40.5048 14.0236 40.6679 14.4168 40.6683 14.8269V22.5613H37.5746V19.4676C37.5746 19.0573 37.4116 18.6638 37.1215 18.3738C36.8314 18.0837 36.438 17.9207 36.0277 17.9207C35.6175 17.9207 35.224 18.0837 34.9339 18.3738C34.6438 18.6638 34.4808 19.0573 34.4808 19.4676V22.5613H31.3871V19.4676C31.3871 19.0573 31.2241 18.6638 30.934 18.3738C30.6439 18.0837 30.2505 17.9207 29.8402 17.9207C29.43 17.9207 29.0365 18.0837 28.7464 18.3738C28.4563 18.6638 28.2933 19.0573 28.2933 19.4676V22.5613H25.1996V14.8269C25.2 14.4168 25.3632 14.0236 25.6532 13.7336C25.9432 13.4436 26.3363 13.2805 26.7465 13.2801ZM22.1058 27.2019C22.1063 26.7918 22.2694 26.3986 22.5594 26.1086C22.8494 25.8186 23.2426 25.6555 23.6527 25.6551H42.2152C42.6255 25.6551 43.0189 25.818 43.309 26.1081C43.5991 26.3982 43.7621 26.7917 43.7621 27.2019C43.7621 27.6122 43.5991 28.0056 43.309 28.2957C43.0189 28.5858 42.6255 28.7488 42.2152 28.7488H23.6527C23.2426 28.7484 22.8494 28.5852 22.5594 28.2952C22.2694 28.0052 22.1063 27.6121 22.1058 27.2019ZM26.7465 31.8426H39.1215V34.9363H26.7465V31.8426Z" fill="#6B3A00"/>
<path d="M34.0278 55.4987C33.8842 55.3551 33.7136 55.2411 33.5259 55.1634C33.3383 55.0856 33.1371 55.0456 32.934 55.0456C32.7308 55.0456 32.5297 55.0856 32.342 55.1634C32.1543 55.2411 31.9838 55.3551 31.8401 55.4987C31.569 55.77 25.1996 62.217 25.1996 68.9676C25.1996 72.0777 26.602 74.492 29.1484 75.7651C30.3284 76.3453 31.6195 76.6648 32.934 76.7019C34.2484 76.6648 35.5395 76.3453 36.7196 75.7651C39.2659 74.492 40.6683 72.0777 40.6683 68.9676C40.6683 62.217 34.2989 55.77 34.0278 55.4987ZM35.4146 72.9579C34.6445 73.3436 33.8026 73.565 32.9425 73.6082C32.0764 73.5677 31.2285 73.3462 30.4534 72.9579C28.9999 72.198 28.2933 70.8928 28.2933 68.9676C28.2933 65.0134 31.2691 60.9018 32.934 58.9109C34.5988 60.9025 37.5746 65.0134 37.5746 68.9676C37.5746 70.8928 36.8681 72.198 35.4146 72.9579Z" fill="#6B3A00"/>
</svg>
