<svg width="54" height="54" viewBox="0 0 54 54" fill="none" xmlns="http://www.w3.org/2000/svg">
<path d="M27.2896 0.99292C12.5437 0.99292 0.589844 12.7954 0.589844 27.3547C0.589844 41.9139 12.5437 53.7164 27.2896 53.7164C42.0355 53.7164 53.9893 41.9139 53.9893 27.3547C53.9893 12.7954 42.0355 0.99292 27.2896 0.99292ZM37.4756 14.4179L33.7827 14.4195C30.8869 14.4195 30.3269 15.7782 30.3269 17.7717V22.1675H37.2325L37.2292 29.0526H30.3275V46.7213H23.1247V29.0526H17.1035V22.1675H23.1247V17.0899C23.1247 11.1973 26.7711 7.98802 32.0947 7.98802L37.4762 7.99611V14.4179H37.4756Z" fill="#6B3A00"/>
</svg>
