<svg width="100" height="100" viewBox="0 0 100 100" fill="none" xmlns="http://www.w3.org/2000/svg">
<g clip-path="url(#clip0)">
<path d="M81.3721 66.2355H74.3779C73.5765 66.2355 72.9277 66.8851 72.9277 67.6857C72.9277 68.4871 73.5765 69.1359 74.3779 69.1359H81.3721C87.6457 69.1359 92.7493 74.2403 92.7493 80.5131V96.9109H80.221V89.6146C80.221 88.8132 79.5714 88.1644 78.7708 88.1644C77.9694 88.1644 77.3206 88.8132 77.3206 89.6146V96.9109H22.8197V89.6146C22.8197 88.8132 22.1701 88.1644 21.3695 88.1644C20.5681 88.1644 19.9193 88.8132 19.9193 89.6146V96.9109H7.39023V80.5131C7.39023 74.2403 12.4939 69.1359 18.7675 69.1359H34.1373C34.8518 77.2849 41.6843 83.7089 50.0698 83.7089C58.4484 83.7089 65.287 77.2917 66.0023 69.1359H67.6103C68.411 69.1359 69.0605 68.4871 69.0605 67.6857C69.0605 66.8851 68.411 66.2355 67.6103 66.2355H62.7922C62.5792 66.2355 62.4063 66.0625 62.4063 65.8503V59.2081C67.1655 55.7646 70.9564 50.8264 71.3816 45.0521L71.4617 43.969C76.631 43.6147 80.7286 39.2989 80.7286 34.0404V33.5404C80.7286 30.2186 78.0261 27.5161 74.705 27.5161H72.6732L72.8356 25.3151C73.8092 12.0964 63.324 0.81131 50.0698 0.81131C36.8148 0.81131 26.3304 12.0972 27.304 25.3151L27.4664 27.5161H25.4346C22.1127 27.5161 19.4102 30.2193 19.4102 33.5404V34.0404C19.4102 39.2989 23.5085 43.6147 28.6779 43.969C28.8637 46.4932 29.1114 48.4933 30.6228 51.3408C30.9982 52.0478 31.8766 52.3174 32.5836 51.942C33.2913 51.5659 33.5602 50.6882 33.1848 49.9805C32.2943 48.3029 31.7777 46.5733 31.65 44.8391L30.1968 25.1021C29.7852 19.5158 31.6583 14.1795 35.4711 10.0752C43.3158 1.63158 56.7316 1.53263 64.6684 10.0752C68.4812 14.1795 70.3544 19.5158 69.9427 25.1021L68.4888 44.8391C67.849 53.5304 57.2007 60.5911 50.6823 61.0851C46.4821 61.4166 40.4645 58.0676 37.1041 54.9527C36.5165 54.4081 35.5988 54.4429 35.055 55.0305C34.5104 55.6181 34.5451 56.5358 35.1328 57.0804C35.947 57.835 36.8216 58.5472 37.7325 59.2081V65.8503C37.7325 66.0625 37.5596 66.2355 37.3473 66.2355H18.7675C10.8949 66.2355 4.48984 72.6405 4.48984 80.5131V98.3611C4.48984 99.1625 5.1394 99.8113 5.94003 99.8113H94.1995C95.0009 99.8113 95.6497 99.1625 95.6497 98.3611V80.5131C95.6497 72.6405 89.2454 66.2355 81.3721 66.2355ZM22.3106 34.0404V33.5404C22.3106 31.8183 23.7125 30.4164 25.4346 30.4164H27.6801L28.4619 41.0353C24.9973 40.5905 22.3106 37.6244 22.3106 34.0404ZM74.705 30.4164C76.4271 30.4164 77.8289 31.8175 77.8289 33.5404V34.0404C77.8289 37.6244 75.1423 40.5905 71.6777 41.0353L72.4594 30.4164H74.705ZM40.6337 65.8503V61.0654C43.9276 62.9159 47.9511 64.4009 51.6657 63.8956C54.0578 63.5678 56.8328 62.5579 59.5059 61.0601V65.8503C59.5059 67.6615 60.9802 69.1359 62.7922 69.1359H63.0883C62.3859 75.6701 56.8585 80.8085 50.0698 80.8085C43.2833 80.8085 37.7537 75.6724 37.0513 69.1359H37.3473C39.1593 69.1359 40.6337 67.6623 40.6337 65.8503Z" fill="#6B3A00"/>
<path d="M50.1649 20.2568C50.8545 20.2568 51.4157 20.818 51.4157 21.5076C51.4157 22.3082 52.0646 22.9578 52.8659 22.9578C53.6666 22.9578 54.3161 22.3082 54.3161 21.5076C54.3161 19.2182 52.4535 17.3564 50.1649 17.3564C47.8764 17.3564 46.0145 19.2182 46.0145 21.5076C46.0145 25.2849 49.0879 28.359 52.8659 28.359C56.6432 28.359 59.7174 25.2849 59.7174 21.5076C59.7174 16.2408 55.4325 11.9552 50.1649 11.9552C44.8982 11.9552 40.6133 16.2408 40.6133 21.5076C40.6133 30.1143 49.2858 36.0277 57.2837 32.94C58.0315 32.6522 58.4031 31.8123 58.1146 31.0653C57.8261 30.3183 56.9869 29.9459 56.2399 30.2344C50.1362 32.591 43.5137 28.078 43.5137 21.5076C43.5137 17.8398 46.4972 14.8556 50.1649 14.8556C53.8327 14.8556 56.817 17.8398 56.817 21.5076C56.817 23.6859 55.0443 25.4586 52.8659 25.4586C50.6869 25.4586 48.9149 23.6859 48.9149 21.5076C48.9149 20.818 49.4753 20.2568 50.1649 20.2568Z" fill="#6B3A00"/>
<path d="M61.237 28.4912C61.9145 28.9187 62.8103 28.7155 63.2371 28.038C68.6579 19.438 61.8549 6.45877 50.0698 6.45877C41.7719 6.45877 35.0217 13.2097 35.0217 21.5076C35.0217 25.5266 36.5867 29.3061 39.429 32.1484C39.7122 32.4316 40.0831 32.5729 40.4547 32.5729C41.7349 32.5729 42.3958 31.0139 41.4796 30.097C39.1858 27.8031 37.9221 24.7516 37.9221 21.5068C37.9221 14.8087 43.3717 9.35916 50.0698 9.35916C59.5829 9.35916 64.9917 19.8157 60.7838 26.4911C60.3563 27.1686 60.5595 28.0644 61.237 28.4912Z" fill="#6B3A00"/>
</g>
<defs>
<clipPath id="clip0">
<rect width="99" height="99" fill="white" transform="translate(0.62265 0.81131)"/>
</clipPath>
</defs>
</svg>
