<svg width="60" height="60" viewBox="0 0 60 60" fill="none" xmlns="http://www.w3.org/2000/svg">
<path d="M35.4563 30.3407C35.4563 33.449 32.9366 35.9687 29.8283 35.9687C26.72 35.9687 24.2003 33.449 24.2003 30.3407C24.2003 27.2323 26.72 24.7126 29.8283 24.7126C32.9366 24.7126 35.4563 27.2323 35.4563 30.3407Z" fill="#6B3A00"/>
<path d="M42.9902 20.383C42.7197 19.6499 42.2881 18.9863 41.7272 18.4416C41.1826 17.8808 40.5194 17.4492 39.7859 17.1786C39.191 16.9476 38.2972 16.6725 36.6511 16.5976C34.8703 16.5164 34.3364 16.4989 29.8283 16.4989C25.3197 16.4989 24.7858 16.516 23.0055 16.5972C21.3593 16.6725 20.4652 16.9476 19.8707 17.1786C19.1371 17.4492 18.4736 17.8808 17.9293 18.4416C17.3685 18.9863 16.9369 19.6494 16.6659 20.383C16.4348 20.9779 16.1598 21.8721 16.0849 23.5182C16.0037 25.2985 15.9862 25.8324 15.9862 30.341C15.9862 34.8492 16.0037 35.3831 16.0849 37.1638C16.1598 38.81 16.4348 39.7037 16.6659 40.2986C16.9369 41.0322 17.3681 41.6953 17.9289 42.24C18.4736 42.8008 19.1367 43.2324 19.8702 43.503C20.4652 43.7345 21.3593 44.0095 23.0055 44.0844C24.7858 44.1656 25.3192 44.1827 29.8278 44.1827C34.3369 44.1827 34.8708 44.1656 36.6506 44.0844C38.2968 44.0095 39.191 43.7345 39.7859 43.503C41.2584 42.9349 42.4222 41.7711 42.9902 40.2986C43.2213 39.7037 43.4963 38.81 43.5717 37.1638C43.6529 35.3831 43.6699 34.8492 43.6699 30.341C43.6699 25.8324 43.6529 25.2985 43.5717 23.5182C43.4968 21.8721 43.2217 20.9779 42.9902 20.383ZM29.8283 39.0105C25.0397 39.0105 21.1579 35.1291 21.1579 30.3406C21.1579 25.552 25.0397 21.6706 29.8283 21.6706C34.6164 21.6706 38.4982 25.552 38.4982 30.3406C38.4982 35.1291 34.6164 39.0105 29.8283 39.0105ZM38.841 23.354C37.722 23.354 36.8148 22.4468 36.8148 21.3278C36.8148 20.2089 37.722 19.3017 38.841 19.3017C39.96 19.3017 40.8672 20.2089 40.8672 21.3278C40.8667 22.4468 39.96 23.354 38.841 23.354Z" fill="#6B3A00"/>
<path d="M29.8283 0.937012C13.5917 0.937012 0.424805 14.1039 0.424805 30.3405C0.424805 46.5771 13.5917 59.744 29.8283 59.744C46.0649 59.744 59.2318 46.5771 59.2318 30.3405C59.2318 14.1039 46.0649 0.937012 29.8283 0.937012ZM46.6105 37.3015C46.5288 39.0988 46.243 40.3259 45.8258 41.4C44.9486 43.668 43.1558 45.4608 40.8878 46.338C39.8142 46.7552 38.5866 47.0406 36.7897 47.1227C34.9893 47.2048 34.4141 47.2245 29.8287 47.2245C25.243 47.2245 24.6682 47.2048 22.8673 47.1227C21.0704 47.0406 19.8429 46.7552 18.7692 46.338C17.6422 45.914 16.6219 45.2495 15.7785 44.3903C14.9197 43.5473 14.2552 42.5266 13.8313 41.4C13.414 40.3264 13.1282 39.0988 13.0466 37.3019C12.9636 35.501 12.9443 34.9258 12.9443 30.3405C12.9443 25.7552 12.9636 25.18 13.0461 23.3795C13.1278 21.5822 13.4131 20.3551 13.8304 19.281C14.2544 18.1544 14.9193 17.1337 15.7785 16.2907C16.6215 15.4315 17.6422 14.767 18.7688 14.343C19.8429 13.9258 21.07 13.6404 22.8673 13.5583C24.6678 13.4762 25.243 13.4565 29.8283 13.4565C34.4136 13.4565 34.9888 13.4762 36.7893 13.5588C38.5866 13.6404 39.8137 13.9258 40.8878 14.3426C42.0144 14.7666 43.0351 15.4315 43.8786 16.2907C44.7373 17.1341 45.4022 18.1544 45.8258 19.281C46.2435 20.3551 46.5288 21.5822 46.6109 23.3795C46.693 25.18 46.7123 25.7552 46.7123 30.3405C46.7123 34.9258 46.693 35.501 46.6105 37.3015Z" fill="#6B3A00"/>
</svg>
