<svg width="100" height="83" viewBox="0 0 100 83" fill="none" xmlns="http://www.w3.org/2000/svg">
<path d="M62.7016 79.4796C56.9698 76.7772 50.9227 73.8304 45.5311 70.5934C44.8443 70.181 43.9535 70.4035 43.5414 71.0903C43.129 71.777 43.3515 72.6678 44.0382 73.0802C49.5392 76.3828 55.6647 79.3684 61.4647 82.1031C62.1936 82.4469 63.0554 82.1294 63.3948 81.4097C63.7363 80.6854 63.4261 79.8211 62.7016 79.4796Z" fill="#6B3A00"/>
<path d="M40.4053 67.2798C29.6967 59.7798 24.0545 51.5251 22.6488 41.3022C22.0163 36.7022 17.5738 33.0997 12.3154 32.9226C11.8987 32.9085 12.2441 32.9175 2.08228 32.915C1.28119 32.915 0.63208 33.5641 0.63208 34.3652C0.63208 35.1663 1.28119 35.8154 2.08228 35.8154C12.3804 35.8175 11.8871 35.8104 12.2176 35.8214C15.5511 35.9336 19.2893 38.162 19.7756 41.6972C20.5924 47.6366 22.7071 52.9012 26.2414 57.7922C29.3013 62.027 33.3903 65.9075 38.7413 69.6556C38.9946 69.8329 39.2848 69.918 39.572 69.918C40.0291 69.918 40.4788 69.7024 40.7611 69.2996C41.2207 68.6438 41.0614 67.7394 40.4053 67.2798Z" fill="#6B3A00"/>
<path d="M99.35 42.7142C98.8751 42.0692 97.9678 41.9307 97.3224 42.4052L88.9173 48.5877C84.5391 51.8081 78.3655 51.076 74.8616 46.9206C71.4506 42.8751 71.63 36.9345 75.2787 33.1021L87.3853 20.3861C89.5979 18.0619 90.7559 15.0161 90.6451 11.8091C90.5345 8.60183 89.1696 5.64247 86.8019 3.47627C82.2126 -0.722911 75.0993 -0.640346 70.6079 3.66363L65.8805 8.19423C65.3822 7.69652 64.7201 7.42253 64.0161 7.42253C63.3117 7.42253 62.6495 7.69691 62.151 8.195L60.0026 10.3434C58.8761 10.1945 57.6952 10.548 56.8313 11.4115L54.6382 13.6046L54.6148 13.5812C54.0483 13.0151 53.1302 13.0151 52.5639 13.5812C51.9975 14.1477 51.9975 15.0658 52.5639 15.6322L52.5873 15.6556L51.493 16.7498L51.4694 16.7262C50.9029 16.16 49.9848 16.16 49.4185 16.7262C48.8521 17.2927 48.8521 18.2108 49.4185 18.7772L49.4421 18.8007L41.4906 26.7522L38.5306 22.4535C33.7667 15.5349 25.9076 11.4042 17.5075 11.4042H2.08227C1.28119 11.4042 0.63208 12.0533 0.63208 12.8544C0.63208 13.6555 1.28119 14.3046 2.08227 14.3046H17.5075C24.953 14.3046 31.9191 17.9658 36.1419 24.0984L39.405 28.8374L36.7295 31.5129C35.2561 32.9865 35.2561 35.3842 36.7297 36.858L37.0543 37.1826L32.9137 41.3234C32.3474 41.8897 32.3474 42.808 32.9139 43.3742C33.4801 43.9403 34.3984 43.9405 34.9647 43.374L39.1051 39.2334L39.43 39.5582C40.9032 41.031 43.3008 41.032 44.7748 39.5582L45.9665 38.3665L68.3742 70.9098C68.8286 71.5694 69.731 71.736 70.3912 71.2818C71.0509 70.8275 71.2174 69.9245 70.7634 69.2649L48.0522 36.2814L50.8109 33.5227C51.3774 32.9562 51.3774 32.0381 50.8111 31.4717C50.2447 30.9058 49.3265 30.9054 48.7603 31.4717L42.7242 37.5074C42.3818 37.8503 41.8241 37.8503 41.4811 37.5074L38.7807 34.807C38.438 34.4646 38.438 33.9067 38.7807 33.5641L51.4932 20.8515L55.4366 24.7949L52.9009 27.3306C52.3345 27.8971 52.3345 28.8152 52.9009 29.3815C53.4674 29.9477 54.3855 29.9477 54.9518 29.3815L57.4876 26.8458L57.5109 26.8692C58.0777 27.4356 58.9956 27.4354 59.5619 26.8692C60.1283 26.3027 60.1283 25.3846 59.5619 24.8183L59.5385 24.7949L60.6327 23.7007L60.6561 23.724C61.2229 24.2904 62.1407 24.2902 62.7071 23.724C63.2734 23.1575 63.2734 22.2394 62.7071 21.6731L62.6837 21.6497L64.8768 19.4566C65.7405 18.5929 66.0938 17.412 65.9449 16.2855C67.5258 14.4946 68.8658 13.9639 68.8658 12.272C68.8658 11.0101 67.9759 10.3078 67.9318 10.2456L72.6148 5.75771C76.0063 2.50696 81.3784 2.44528 84.8444 5.61617C86.6324 7.25218 87.663 9.48702 87.7465 11.909C87.83 14.3309 86.9557 16.6313 85.2848 18.3862L73.1783 31.1022C68.5079 36.0079 68.2782 43.612 72.6444 48.7905C75.2493 51.88 79.0072 53.4911 82.7986 53.4911C85.5341 53.4911 88.2869 52.6521 90.6359 50.9246L99.0412 44.7422C99.686 44.2673 99.8245 43.3595 99.35 42.7142ZM64.0163 10.4318L65.8569 12.2722L64.4469 13.6821L62.6065 11.8418L64.0163 10.4318ZM57.4876 22.7441L53.5442 18.8007L54.6384 17.7065L58.5818 21.6499L57.4876 22.7441ZM56.6894 15.6556L57.9097 14.4351C57.9182 14.444 57.9257 14.4536 57.9344 14.4625L61.8258 18.3539C61.8345 18.3626 61.8441 18.3699 61.853 18.3784L60.6327 19.5987L56.6894 15.6556Z" fill="#6B3A00"/>
</svg>
