<svg width="50" height="49" viewBox="0 0 50 49" fill="none" xmlns="http://www.w3.org/2000/svg">
<path d="M40.4498 47.8551C30.0409 48.9661 19.6005 48.9661 9.19172 47.8551C5.04126 47.4122 1.763 44.1339 1.32003 39.9831C0.209079 29.5743 0.209079 19.1342 1.32003 8.72541C1.763 4.57495 5.04126 1.29669 9.19172 0.853719C19.6005 -0.257229 30.0406 -0.257229 40.4494 0.853719C44.6002 1.29669 47.8785 4.57495 48.3215 8.72541C49.4324 19.1342 49.4324 29.5743 48.3215 39.9831C47.8785 44.1339 44.6006 47.4122 40.4498 47.8551Z" fill="#6B3A00"/>
<path d="M45.6744 10.4858C45.2816 6.80283 42.3727 3.89365 38.6894 3.50044C29.4528 2.51499 20.1887 2.51499 10.9521 3.50044C7.26908 3.89365 4.3599 6.80283 3.96668 10.4858C2.98124 19.7224 2.98124 28.9865 3.96668 38.2228C4.3599 41.9061 7.26908 44.8153 10.9521 45.2082C20.1887 46.194 29.4528 46.194 38.689 45.2082C42.3724 44.8153 45.2816 41.9061 45.6744 38.2228C46.6602 28.9865 46.6602 19.7224 45.6744 10.4858Z" fill="#6B3A00"/>
<path d="M1.21606 38.9744C1.24948 39.3108 1.28401 39.6472 1.32003 39.9836C1.763 44.134 5.04126 47.4123 9.19209 47.8553C19.6009 48.9662 30.0409 48.9662 40.4498 47.8553C44.6006 47.4123 47.8785 44.134 48.3215 39.9836C48.3575 39.6472 48.392 39.3108 48.4258 38.9744H1.21606Z" fill="#6B3A00"/>
<path d="M47.7968 42.1837L16.3902 10.7768C15.6888 9.8615 14.5853 9.27075 13.3433 9.27075C11.2246 9.27075 9.50696 10.988 9.50696 13.1067C9.50696 14.3491 10.0981 15.4526 11.0133 16.1537L42.3108 47.4514C44.8405 46.6097 46.8567 44.6659 47.7968 42.1837Z" fill="#6B3A00"/>
<path d="M16.5655 19.4595H10.1207V39.438L19.2653 48.5825C26.3282 48.8498 33.3961 48.6081 40.4494 47.8551C41.6825 47.7237 42.8376 47.3401 43.8654 46.7594L16.5655 19.4595Z" fill="#6B3A00"/>
<path d="M38.4525 21.133C37.2736 19.8405 35.5764 19.0295 33.6898 19.0295C30.7056 19.0295 28.7796 20.0777 27.6334 21.0509L26.3706 19.4595H20.4323V39.438L29.6043 48.61C33.2216 48.4923 36.8373 48.2406 40.4498 47.8552C44.6006 47.4122 47.8785 44.1339 48.3215 39.9835C48.6178 37.2083 48.8342 34.431 48.9724 31.6528L38.4525 21.133Z" fill="#6B3A00"/>
<path d="M10.1211 19.4592H16.5655V39.4377H10.1211V19.4592Z" fill="white"/>
<path d="M33.6898 19.0293C28.9671 19.0293 26.8926 21.6541 26.3706 22.4531V19.4593H20.4323V39.4378H26.877V29.4025C26.877 26.5026 28.2119 24.2469 30.7438 24.2469C33.2754 24.2469 33.6898 27.0547 33.6898 30.5075V39.4378H40.1345V25.4741C40.1345 21.9147 37.2491 19.0293 33.6898 19.0293Z" fill="white"/>
<path d="M17.1793 13.1071C17.1793 15.2258 15.462 16.9431 13.3433 16.9431C11.2246 16.9431 9.50696 15.2258 9.50696 13.1071C9.50696 10.9884 11.2246 9.27075 13.3433 9.27075C15.462 9.27075 17.1793 10.9884 17.1793 13.1071Z" fill="white"/>
</svg>
