<svg width="100" height="75" viewBox="0 0 100 75" fill="none" xmlns="http://www.w3.org/2000/svg">
  <path
    d="M90.7975 0H9.20254C4.12832 0 0 4.12813 0 9.20879C0 14.283 4.12832 18.4113 9.20254 18.4113H90.7975C95.8717 18.4113 100 14.283 100 9.20879C100 4.12813 95.8717 0 90.7975 0Z"
    fill="#F7E2C9" />
  <path
    d="M90.7975 28.2422H9.20254C4.12832 28.2422 0 32.3703 0 37.451C0 42.5252 4.12832 46.6535 9.20254 46.6535H90.7975C95.8717 46.6535 100 42.5252 100 37.451C100 32.3703 95.8717 28.2422 90.7975 28.2422Z"
    fill="#F7E2C9" />
  <path
    d="M90.7975 56.4844H9.20254C4.12832 56.4844 0 60.6127 0 65.6932C0 70.7674 4.12832 74.8957 9.20254 74.8957H90.7975C95.8717 74.8957 100 70.7674 100 65.6932C100 60.6127 95.8717 56.4844 90.7975 56.4844Z"
    fill="#F7E2C9" />
</svg>
