<svg width="222" height="222" viewBox="0 0 222 222" fill="none" xmlns="http://www.w3.org/2000/svg">
<g filter="url(#filter0_d)">
<path d="M186.664 31.3357C167.302 11.9738 140.552 0 111 0C81.4476 0 54.6976 11.9738 35.3357 31.3357C15.9738 50.6976 4 77.4476 4 107C4 136.552 15.9738 163.302 35.3357 182.664C54.6976 202.026 81.4476 214 111 214C140.552 214 167.302 202.026 186.664 182.664C206.026 163.302 218 136.552 218 107C218 77.4476 206.026 50.6976 186.664 31.3357ZM177.493 173.493C160.424 190.562 136.986 201.007 111 201.007C85.0143 201.007 61.5762 190.562 44.5071 173.493C27.6929 156.424 16.9929 132.986 16.9929 107C16.9929 81.0143 27.4381 57.5762 44.5071 40.5071C61.5762 23.4381 85.0143 12.9929 111 12.9929C136.986 12.9929 160.424 23.4381 177.493 40.5071C194.562 57.5762 205.007 81.0143 205.007 107C205.007 132.986 194.307 156.424 177.493 173.493Z" fill="white"/>
<path d="M170.359 99.3571C169.85 98.8476 169.086 97.8285 168.321 96.8095C168.067 96.5547 168.067 96.5547 167.812 96.3C167.048 95.5357 166.283 95.0261 165.264 94.5166L127.559 72.8619C127.559 72.8619 127.305 72.8619 127.305 72.6071L89.3452 50.6976C86.0333 48.6595 82.2119 48.4047 78.6452 49.169C75.0785 50.188 72.0214 52.4809 69.9833 55.7928C69.219 56.8119 68.9642 58.0857 68.4547 59.1047C68.1999 59.869 68.2 60.888 67.9452 61.9071C67.9452 62.1619 67.9452 62.6714 67.9452 62.9261V107V150.819C67.9452 154.64 69.4738 158.207 72.0214 160.755C74.569 163.302 78.1357 164.831 81.9571 164.831C83.2309 164.831 84.7595 164.576 86.0333 164.067C87.3071 163.557 88.5809 163.048 89.5999 162.283L127.05 140.629L127.559 140.374L165.264 118.719C165.519 118.719 165.519 118.464 165.774 118.464C168.831 116.426 171.124 113.369 171.888 110.057C172.907 106.49 172.398 102.669 170.359 99.3571ZM159.405 107.255C159.405 107.509 159.15 107.764 158.895 107.764H158.64L121.19 129.674L120.936 129.929L83.4857 151.583C83.2309 151.583 83.2309 151.838 82.9761 151.838C82.9761 151.838 82.7214 151.838 82.7214 152.093H82.4666C82.2119 152.093 81.9571 151.838 81.7023 151.838C81.4476 151.583 81.4476 151.329 81.4476 151.074V107V63.1809V62.9261V62.6714C81.7023 62.4166 81.9571 62.1619 82.2119 62.1619C82.4666 62.1619 82.7214 62.1619 82.9761 62.1619L120.681 83.8166L120.936 84.0714L158.895 105.981L159.15 106.236L159.405 106.49C159.405 106.745 159.405 107 159.405 107.255Z" fill="white"/>
</g>
<defs>
<filter id="filter0_d" x="0" y="0" width="222" height="222" filterUnits="userSpaceOnUse" color-interpolation-filters="sRGB">
<feFlood flood-opacity="0" result="BackgroundImageFix"/>
<feColorMatrix in="SourceAlpha" type="matrix" values="0 0 0 0 0 0 0 0 0 0 0 0 0 0 0 0 0 0 127 0"/>
<feOffset dy="4"/>
<feGaussianBlur stdDeviation="2"/>
<feColorMatrix type="matrix" values="0 0 0 0 0 0 0 0 0 0 0 0 0 0 0 0 0 0 0.25 0"/>
<feBlend mode="normal" in2="BackgroundImageFix" result="effect1_dropShadow"/>
<feBlend mode="normal" in="SourceGraphic" in2="effect1_dropShadow" result="shape"/>
</filter>
</defs>
</svg>
