<svg width="100" height="111" viewBox="0 0 100 111" fill="none" xmlns="http://www.w3.org/2000/svg">
<path d="M51.0571 34.7359C41.5387 34.7359 33.7929 26.9901 33.7929 17.4717C33.7929 7.95337 41.5387 0.20755 51.0571 0.20755C60.5754 0.20755 68.3212 7.95337 68.3212 17.4717C68.3212 26.9901 60.5805 34.7359 51.0571 34.7359ZM51.0571 2.86121C42.9988 2.86121 36.4466 9.4134 36.4466 17.4717C36.4466 25.53 42.9988 32.0822 51.0571 32.0822C59.1154 32.0822 65.6676 25.53 65.6676 17.4717C65.6676 9.4134 59.1154 2.86121 51.0571 2.86121Z" fill="#6B3A00"/>
<path d="M30.4066 79.9711C30.2017 79.9711 30.0378 79.9454 29.8943 79.9045C27.9784 79.4178 26.6157 77.174 25.7397 73.0449C25.1147 70.1044 24.8637 66.8001 24.8329 64.6894L24.8176 63.7007C24.7561 59.5768 24.6946 55.3145 25.2581 51.5953C26.6311 42.4714 31.8257 37.8455 40.7037 37.8455H56.4002C57.1328 37.8455 57.727 38.4397 57.727 39.1723C57.727 39.9049 57.1328 40.4991 56.4002 40.4991H40.7037C33.132 40.4991 29.0593 44.1466 27.881 51.9847C27.3534 55.4887 27.4149 59.6434 27.4712 63.6597L27.4866 64.6536C27.5122 66.5491 27.7478 69.7406 28.3319 72.4916C29.1669 76.4158 30.1812 77.1637 30.4784 77.302C31.3288 77.1944 34.5101 75.7908 38.3881 73.3728C42.5633 70.7703 45.6677 68.1781 46.7026 66.4261C47.4351 64.879 48.3009 57.3944 48.6749 53.0041C48.7364 52.2715 49.3818 51.7336 50.1093 51.7951C50.8419 51.8566 51.3798 52.5021 51.3183 53.2295C51.1493 55.2223 50.2425 65.2888 49.0591 67.6505L49.0232 67.7171C47.2046 70.8728 41.6719 74.4793 39.3768 75.883C37.4557 77.0612 35.5039 78.1166 33.88 78.8594C31.9845 79.7354 31.0163 79.9711 30.4066 79.9711Z" fill="#6B3A00"/>
<path d="M71.7074 79.9711C71.1029 79.9711 70.1347 79.7406 68.229 78.8645C66.6102 78.1217 64.6583 77.0664 62.7321 75.8881C60.4371 74.4845 54.9095 70.8779 53.0857 67.7222L53.0498 67.6556C51.8562 65.2735 50.4269 54.5154 50.2681 53.2962C50.1708 52.5687 50.6882 51.9027 51.4105 51.8054C52.138 51.7081 52.8039 52.2203 52.9013 52.9478C53.475 57.3484 54.6636 64.8637 55.4115 66.4313C56.4463 68.1833 59.5457 70.7755 63.726 73.3779C67.604 75.7908 70.7802 77.1945 71.6357 77.3072C71.9431 77.1637 72.9523 76.4056 73.7822 72.4968C74.3662 69.7458 74.6019 66.5542 74.6275 64.6587L74.6429 63.6649C74.6992 59.6485 74.7607 55.4939 74.233 51.9898C73.0548 44.1518 68.9821 40.5043 61.4104 40.5043H45.7138C44.9813 40.5043 44.387 39.91 44.387 39.1774C44.387 38.4449 44.9813 37.8506 45.7138 37.8506H61.4104C70.2884 37.8506 75.4881 42.4766 76.856 51.6005C77.4144 55.3197 77.3529 59.5871 77.2965 63.7059L77.2812 64.6946C77.2504 66.8052 76.9994 70.1095 76.3744 73.05C75.4984 77.1791 74.1357 79.4229 72.2095 79.9096C72.0712 79.9455 71.9124 79.9711 71.7074 79.9711Z" fill="#6B3A00"/>
<path d="M10.7604 110.765C4.36187 110.765 1.85165 108.48 0.878302 106.538C-0.376808 104.054 0.360889 101.2 1.56989 99.5969C4.659 95.5242 14.6589 94.2537 24.6383 93.306C26.5133 93.1267 28.6342 92.9269 29.0645 92.7783C29.3411 92.681 29.669 92.5785 30.043 92.4556C32.7991 91.5796 37.9322 89.9505 38.7263 85.555C39.341 82.1893 39.09 79.1002 37.8605 74.8994C37.6556 74.1976 38.0603 73.4599 38.7621 73.2498C39.464 73.0449 40.2017 73.4496 40.4117 74.1515C41.7437 78.7211 42.0254 82.2713 41.339 86.0263C40.2529 91.9945 33.9005 94.0129 30.8421 94.9812C30.4887 95.0939 30.1813 95.1912 29.9508 95.2732C29.254 95.5242 27.8145 95.6676 24.8842 95.9494C18.8597 96.5232 6.32394 97.7168 3.68052 101.205C3.09139 101.979 2.45615 103.787 3.23996 105.345C4.16208 107.179 6.94382 108.157 11.0626 108.106C16.9693 108.034 25.3709 106.687 33.4907 105.386C45.4424 103.47 55.7599 101.82 59.4996 103.736C60.1502 104.069 60.4115 104.873 60.0734 105.524C59.7404 106.175 58.9361 106.436 58.2855 106.098C55.3193 104.576 43.9465 106.4 33.9108 108.009C25.6936 109.325 17.1947 110.688 11.0934 110.76C10.9858 110.765 10.8731 110.765 10.7604 110.765Z" fill="#6B3A00"/>
<path d="M88.7001 110.765C88.5874 110.765 88.4747 110.765 88.3568 110.765C81.3641 110.678 71.1951 107.706 61.3592 104.833C56.1902 103.321 51.308 101.897 47.3327 101.036C42.2508 99.935 40.3143 100.15 39.5817 100.524C38.9311 100.857 38.1268 100.601 37.7938 99.9504C37.4609 99.2998 37.717 98.4955 38.3676 98.1625C41.6924 96.4566 49.5509 98.6184 62.102 102.286C71.313 104.976 81.7585 108.029 88.3876 108.111C92.5064 108.162 95.283 107.179 96.2102 105.35C96.994 103.793 96.3588 101.984 95.7697 101.211C93.1263 97.7219 80.5905 96.5283 74.566 95.9545C71.6357 95.6728 70.191 95.5293 69.4995 95.2783C69.2689 95.1963 68.9616 95.099 68.6081 94.9863C65.5548 94.0181 59.1973 91.9997 58.1112 86.0315C57.2404 81.2313 58.0395 77.2047 59.5098 72.6351C59.7352 71.9384 60.4832 71.5542 61.1799 71.7796C61.8766 72.005 62.2608 72.7529 62.0354 73.4496C60.6881 77.6402 59.9453 81.3031 60.7188 85.5602C61.518 89.9556 66.646 91.5847 69.4021 92.4607C69.7812 92.5785 70.1091 92.6861 70.3857 92.7835C70.8109 92.932 72.9369 93.1369 74.8119 93.3111C84.7913 94.2589 94.7912 95.5293 97.8803 99.602C99.0944 101.2 99.827 104.054 98.577 106.544C97.6037 108.48 95.0935 110.765 88.7001 110.765Z" fill="#6B3A00"/>
<path d="M36.6668 67.5532C36.0828 67.5532 35.5449 67.1638 35.3861 66.5747C34.1412 62.0102 35.2939 50.0687 35.3451 49.5616C35.4168 48.8341 36.0675 48.2962 36.7949 48.3679C37.5224 48.4396 38.0603 49.0902 37.9885 49.8177C37.6607 53.1322 37.0203 62.4713 37.9476 65.8729C38.1422 66.5798 37.7221 67.3124 37.0152 67.502C36.8974 67.5378 36.7795 67.5532 36.6668 67.5532Z" fill="#6B3A00"/>
<path d="M65.4524 67.5532C65.3346 67.5532 65.2167 67.5378 65.104 67.5071C64.3971 67.3124 63.977 66.5849 64.1717 65.878C65.0989 62.4764 64.4586 53.1373 64.1307 49.8228C64.059 49.0954 64.5918 48.4448 65.3243 48.373C66.0569 48.3013 66.7024 48.8341 66.7741 49.5667C66.8253 50.0739 67.978 62.0153 66.7331 66.5798C66.5692 67.1638 66.0364 67.5532 65.4524 67.5532Z" fill="#6B3A00"/>
</svg>
