<svg width="1440" height="540" viewBox="0 0 1440 540" fill="none" xmlns="http://www.w3.org/2000/svg">
<path d="M1442.26 559.987L1441.47 36.8048C1431.92 36.1605 1416.04 36.111 1416.99 33.3374C1417.21 38.8002 1384.04 29.8664 1384.23 34.6463C1384.24 34.9878 1351.26 30.8339 1351.43 34.931C1351.62 39.7109 1319.04 45.4584 1319.01 44.7756C1318.99 44.4341 1286.02 40.2803 1286.07 41.646C1285.91 37.5489 1254.07 35.4013 1254.27 40.5227C1254.3 41.2055 1226.62 37.182 1226.58 36.1577C1226.56 35.8163 1190.98 45.7875 1191.83 40.6239C1191.94 43.3553 1165.93 28.3217 1165.08 33.4853C1164.92 29.3882 1132.53 39.9156 1132.47 38.5499C1132.55 40.5984 1092.14 35.7158 1092.12 35.3744C1092.07 34.0087 1060.77 45.5182 1060.79 45.8596C1060.82 46.5425 1019.61 48.5306 1019.52 46.1406C1019.38 42.7264 988.116 54.9187 988.144 55.6015C988.266 58.6744 951.102 55.7137 951.075 55.0308C951.007 53.3237 917.313 57.7476 917.34 58.4305C917.245 56.0405 881.56 63.6218 881.587 64.3046C881.56 63.6218 845.671 66.0816 845.63 65.0574C845.425 59.936 811.649 62.3114 811.636 61.97C811.677 62.9943 776.803 64.3876 777.71 60.5897C777.751 61.614 741.698 59.9768 741.753 61.3425C741.862 64.0739 711.945 57.0619 711.822 53.9891C711.795 53.3063 676.908 54.3582 676.88 53.6754C676.99 56.4068 640.691 48.6239 640.923 54.4281C640.991 56.1352 604.938 54.498 604.979 55.5223C605.006 56.2051 569.226 61.3964 570.092 56.5743C570.174 58.6228 538.075 49.9882 538.116 51.0125C538.102 50.671 502.956 45.2359 503.134 49.6744C503.147 50.0158 468.506 57.2134 468.519 57.5549C468.656 60.9691 431.287 52.887 431.301 53.2285C431.423 56.3013 401.766 55.7764 401.861 58.1664C401.929 59.8735 371.092 56.3181 371.228 59.7323C371.147 57.6838 342.532 56.7752 342.573 57.7995C342.696 60.8723 308.702 57.785 308.824 60.8578C308.865 61.8821 282.091 54.0606 282.105 54.402C282.037 52.6949 246.311 59.2519 246.23 57.2033C246.38 60.959 213.401 56.8051 212.522 61.2859C212.413 58.5545 177.73 64.7278 177.717 64.3864C177.512 59.265 141.446 57.2864 141.759 65.1391C141.8 66.1634 109.15 70.2037 109.095 68.838C109.327 74.6422 76.8599 56.7892 77.1737 64.6419C77.1737 64.6419 47.243 57.2886 47.3249 59.3371C47.243 57.2886 2.96789 61.7933 2.96789 61.7933C2.79055 57.3548 -22.5856 58.0268 -27.8421 58.9207L-27.8938 613.94L1442.26 559.987Z" fill="#FEF5EA"/>
</svg>
