<svg width="1440" height="735" viewBox="0 0 1440 735" fill="none" xmlns="http://www.w3.org/2000/svg">
<path d="M1537.63 735L1537.63 39.1295C1527.34 36.7205 1510.32 35.5209 1511.15 27.9679C1511.75 42.9835 1475.59 16.2291 1476.11 29.3678C1476.15 30.3063 1440.51 16.6905 1440.96 27.9522C1441.49 41.0909 1406.94 54.691 1406.86 52.8141C1406.83 51.8756 1371.19 38.2598 1371.34 42.0137C1370.89 30.752 1336.61 22.722 1337.17 36.7991C1337.25 38.6761 1307.3 25.773 1307.19 22.9576C1307.15 22.0191 1269.66 47.0164 1270.23 32.8941C1270.53 40.4019 1241.64 -2.62278 1241.07 11.4995C1240.62 0.237807 1206.6 26.9766 1206.45 23.2227C1206.67 28.8536 1163.01 12.7385 1162.97 11.8C1162.82 8.04607 1130.04 37.5551 1130.08 38.4936C1130.16 40.3706 1086.12 43.0702 1085.85 36.5008C1085.48 27.1161 1052.77 58.5021 1052.85 60.379C1053.18 68.8253 1013.14 58.2057 1013.06 56.3287C1012.88 51.6363 977.048 61.5276 977.123 63.4046C976.86 56.8352 939.109 75.2632 939.184 77.1401C939.109 75.2632 900.794 79.614 900.682 76.7985C900.119 62.7214 864.065 66.9818 864.028 66.0434C864.14 68.8588 826.844 70.349 827.561 59.9806C827.674 62.796 788.91 55.8851 789.06 59.639C789.36 67.1468 756.814 45.8878 756.476 37.4415C756.401 35.5645 719.067 36.1162 718.992 34.2393C719.292 41.7471 679.853 17.9435 680.49 33.8977C680.678 38.5901 641.913 31.6791 642.026 34.4946C642.101 36.3715 604.086 48.2301 604.691 35.0463C604.916 40.6772 569.923 14.816 570.035 17.6315C569.998 16.693 531.951 -0.586387 532.439 11.6138C532.476 12.5523 495.817 29.9966 495.855 30.9351C496.23 40.3199 455.623 15.623 455.66 16.5615C455.997 25.0078 424.164 21.5798 424.427 28.1492C424.614 32.8416 391.313 21.0124 391.688 30.3972C391.463 24.7664 360.723 20.3547 360.835 23.1702C361.173 31.6165 324.519 20.8613 324.856 29.3076C324.969 32.123 295.739 8.85158 295.776 9.79006C295.589 5.09767 257.724 20.7102 257.499 15.0793C257.912 25.4026 222.275 11.7868 221.633 24.0322C221.333 16.5243 184.561 31.1532 184.524 30.2147C183.961 16.1376 145.159 8.28819 146.022 29.8732C146.134 32.6886 111.398 41.5963 111.248 37.8424C111.885 53.7965 75.8793 2.59649 76.7418 24.1815C76.7418 24.1815 44.1586 1.98393 44.3836 7.61479C44.1586 1.98393 -3.00997 11.3884 -3.00997 11.3884C-3.49743 -0.811835 -30.6598 -0.666538 -36.2359 1.4362L-13.5 735L1537.63 735Z" fill="#FEF5EA"/>
</svg>
