<svg width="93" height="100" viewBox="0 0 93 100" fill="none" xmlns="http://www.w3.org/2000/svg">
<path d="M73.9844 17.5603C73.2968 17.9733 73.0743 18.8654 73.4875 19.553C74.1132 20.5948 74.6875 21.684 75.1941 22.7905C75.4384 23.3237 75.9647 23.6384 76.5154 23.6384C76.7176 23.6384 76.9232 23.5958 77.1192 23.5061C77.8484 23.1719 78.1689 22.3102 77.8349 21.581C77.2832 20.3767 76.6583 19.1911 75.9769 18.0573C75.5643 17.3697 74.6718 17.1471 73.9844 17.5603Z" fill="#6B3A00"/>
<path d="M79.5081 38.9505C78.7134 38.8512 77.9867 39.4162 77.8878 40.2125C77.6581 42.0571 77.2706 43.8937 76.736 45.671L70.0622 67.8559C70.0214 67.9915 70.0007 68.1326 70.0007 68.2742V78.7947C70.0007 79.597 70.6507 80.247 71.453 80.247C72.2552 80.247 72.9052 79.597 72.9052 78.7947V68.488L79.5172 46.5077C80.0989 44.5746 80.5205 42.577 80.7701 40.5709C80.869 39.775 80.304 39.0495 79.5081 38.9505Z" fill="#6B3A00"/>
<path d="M71.4528 83.5316C70.6505 83.5316 70.0005 84.1816 70.0005 84.9838V98.1763C70.0005 98.9785 70.6505 99.6285 71.4528 99.6285C72.255 99.6285 72.9051 98.9785 72.9051 98.1763V84.9838C72.9051 84.1818 72.255 83.5316 71.4528 83.5316Z" fill="#6B3A00"/>
<path d="M26.6634 80.6206L22.5833 80.6045C20.8097 80.5977 19.3042 79.3242 19.0037 77.5762L16.5462 63.2921C16.4263 62.5952 15.822 62.0859 15.1148 62.0859L9.96114 62.0857C10.0086 57.8913 11.2016 53.7978 13.4182 50.2319L15.1809 47.3961C15.5883 46.7399 15.7724 45.9862 15.713 45.2159L15.318 40.106C15.2564 39.3063 14.5601 38.7062 13.758 38.7701C12.9583 38.8318 12.3601 39.5303 12.4221 40.33L12.8171 45.4396C12.8287 45.5892 12.7927 45.736 12.7137 45.8632L10.9512 48.6987C8.40351 52.7976 7.05617 57.5151 7.05521 62.3411C7.05501 63.046 7.32862 63.7097 7.82569 64.2101C8.32547 64.7132 8.99062 64.9901 9.69818 64.9901L13.891 64.9903L16.1411 78.0682C16.6814 81.2083 19.3859 83.4961 22.572 83.5087L26.6522 83.5248H26.658C27.4573 83.5248 28.1068 82.8782 28.1101 82.0781C28.1132 81.2766 27.4655 80.6239 26.6634 80.6206Z" fill="#6B3A00"/>
<path d="M37.0248 80.661L32.8525 80.6448C32.8505 80.6448 32.8486 80.6448 32.8467 80.6448C32.0473 80.6448 31.3979 81.2913 31.3946 82.0915C31.3915 82.8937 32.0392 83.5463 32.8412 83.5494L37.0136 83.5656C38.5083 83.5714 39.7243 84.7923 39.7243 86.2872V98.359C39.7243 99.1613 40.3744 99.8113 41.1766 99.8113C41.9789 99.8113 42.6289 99.1613 42.6289 98.359V86.2872C42.6287 83.1971 40.1149 80.6734 37.0248 80.661Z" fill="#6B3A00"/>
<path d="M15.8714 18.7662C15.2225 20.0022 14.6462 21.2907 14.1585 22.5964C13.8777 23.3477 14.2593 24.1844 15.0105 24.465C15.178 24.5276 15.3497 24.5574 15.5186 24.5574C16.1072 24.5574 16.661 24.1968 16.8791 23.613C17.3244 22.4212 17.8506 21.2448 18.4429 20.1163C18.8157 19.406 18.5422 18.5283 17.8322 18.1553C17.1223 17.783 16.2441 18.0558 15.8714 18.7662Z" fill="#6B3A00"/>
<path d="M29.7535 7.87137C29.9965 7.87137 30.2428 7.81037 30.4692 7.6818C35.0381 5.08723 40.2512 3.71589 45.5447 3.71589C51.0836 3.71589 56.3199 5.03999 61.1088 7.6512C61.8133 8.03499 62.6951 7.77552 63.0793 7.07145C63.4631 6.36719 63.2038 5.48516 62.4995 5.10098C57.279 2.2545 51.5746 0.81131 45.5445 0.81131C39.7491 0.81131 34.0405 2.31375 29.0351 5.15617C28.3374 5.55216 28.0932 6.43864 28.4894 7.13612C28.7567 7.60725 29.2477 7.87156 29.7535 7.87137Z" fill="#6B3A00"/>
<path d="M64.6851 17.6462C61.1171 14.0748 56.4706 11.6684 51.5307 10.6743C46.5857 9.67917 41.3606 10.0969 36.6769 11.9922C31.8167 13.959 27.6452 17.4859 24.7884 21.8705C22.1034 25.9917 20.5911 30.858 20.5677 35.7828C20.5344 42.8098 23.2751 49.3948 28.2851 54.3247C28.8568 54.8872 29.7764 54.8798 30.3389 54.3082C30.9014 53.7364 30.894 52.817 30.3224 52.2545C25.8753 47.8784 23.4424 42.0338 23.4721 35.7966C23.5077 28.264 27.2389 21.5492 32.9348 17.3854C31.9302 19.2958 31.369 21.4572 31.369 23.7147C31.369 31.2387 37.4903 37.36 45.0145 37.36H47.7965C53.719 37.36 58.5371 42.1783 58.5371 48.1007C58.5371 50.1274 57.9701 52.1001 56.8974 53.8057C55.1722 56.5486 52.2351 58.3301 48.8159 58.7146C44.0934 59.2458 39.1839 58.1945 35.0625 55.8445C35.042 55.8327 35.0212 55.8209 35.0007 55.8093C34.3052 55.4102 33.4173 55.6499 33.0181 56.3455C32.6188 57.041 32.8587 57.9287 33.5542 58.3281C37.585 60.6439 42.3346 61.8069 46.9796 61.741C53.504 61.6485 60.0589 58.7708 64.6855 54.1291C69.4949 49.3038 72.1787 42.9211 72.2426 36.1565C72.3087 29.1644 69.6246 22.5908 64.6851 17.6462ZM62.6285 52.0787C61.7668 52.9432 60.8478 53.7296 59.8817 54.4372C60.9043 52.4907 61.4419 50.321 61.4419 48.1007C61.4419 40.5767 55.3208 34.4554 47.7967 34.4554H45.0147C39.0921 34.4554 34.2738 29.6371 34.2738 23.7147C34.2738 18.9392 37.4648 14.7103 42.0447 13.3949C43.395 13.1317 44.7859 12.9869 46.207 12.9749C52.4082 12.918 58.2457 15.3104 62.63 19.6992C67.0144 24.0876 69.3967 29.9227 69.3383 36.1292C69.2819 42.1299 66.8988 47.7944 62.6285 52.0787Z" fill="#6B3A00"/>
<path d="M50.3355 18.6754C47.1658 18.6754 44.5872 21.2539 44.5872 24.4238C44.5872 27.5936 47.1656 30.1721 50.3355 30.1721C53.5054 30.1721 56.0841 27.5936 56.0841 24.4238C56.0841 21.2539 53.5052 18.6754 50.3355 18.6754ZM50.3355 27.2673C48.7674 27.2673 47.4917 25.9917 47.4917 24.4236C47.4917 22.8555 48.7674 21.5798 50.3355 21.5798C51.9038 21.5798 53.1795 22.8555 53.1795 24.4236C53.1795 25.9917 51.9036 27.2673 50.3355 27.2673Z" fill="#6B3A00"/>
<path d="M48.2241 47.3918C48.2241 44.2221 45.6454 41.6435 42.4756 41.6435C39.3057 41.6435 36.7272 44.222 36.7272 47.3918C36.7272 50.5617 39.3057 53.1402 42.4756 53.1402C45.6454 53.1402 48.2241 50.5615 48.2241 47.3918ZM39.632 47.3918C39.632 45.8237 40.9077 44.548 42.4758 44.548C44.044 44.548 45.3197 45.8237 45.3197 47.3918C45.3197 48.9599 44.044 50.2356 42.4758 50.2356C40.9077 50.2354 39.632 48.9597 39.632 47.3918Z" fill="#6B3A00"/>
<path d="M67.2806 15.4794C67.4385 15.4794 67.5984 15.4603 67.7568 15.4213L76.3042 13.3196C76.9296 13.1657 77.4257 12.6847 77.5989 12.0642C77.7722 11.4438 77.5965 10.7756 77.1413 10.3199L74.8451 8.02436L78.6528 4.21684C79.2202 3.64968 79.2202 2.73009 78.653 2.16311C78.0859 1.59575 77.1663 1.59595 76.5993 2.16292L72.7914 5.97063L70.4948 3.67407C70.0398 3.21922 69.3717 3.04397 68.7523 3.21593C68.1325 3.38826 67.6509 3.88301 67.4962 4.50769L65.3795 13.0402C65.2126 13.7142 65.4058 14.4102 65.8965 14.9016C66.2718 15.2775 66.7669 15.4794 67.2806 15.4794ZM69.839 7.12607L73.6854 10.9723L68.5732 12.2292L69.839 7.12607Z" fill="#6B3A00"/>
<path d="M92.1709 28.9952C92.0489 28.2023 91.3075 27.6589 90.5146 27.7807L85.1924 28.5996L84.6984 25.3895C84.6984 25.3893 84.6982 25.3893 84.6982 25.3891C84.6002 24.7532 84.1655 24.217 83.5639 23.9895C82.9617 23.7619 82.2812 23.8768 81.7873 24.2884L75.0353 29.9173C74.5018 30.3619 74.246 31.0373 74.351 31.7238C74.4559 32.4104 74.9019 32.9784 75.5436 33.2436L83.6787 36.6031C83.8983 36.6939 84.1297 36.7382 84.3601 36.7382C84.7546 36.7382 85.1455 36.6079 85.4652 36.3566C85.9718 35.9584 86.2258 35.3158 86.1279 34.6791L85.6343 31.4705L90.9564 30.6516C91.749 30.5296 92.2927 29.788 92.1709 28.9952ZM78.0897 31.1523L82.1284 27.7854L82.9555 33.1617L78.0897 31.1523Z" fill="#6B3A00"/>
<path d="M17.966 8.02435L15.6704 10.3199C15.2149 10.7756 15.0395 11.4438 15.2128 12.0642C15.3859 12.6846 15.8818 13.1656 16.5077 13.3196L25.0545 15.4211C25.2131 15.4603 25.373 15.4794 25.5308 15.4794C26.0445 15.4794 26.5397 15.2775 26.9148 14.9016C27.4056 14.4102 27.5989 13.7142 27.4318 13.0398L25.3153 4.50749C25.1604 3.883 24.679 3.38826 24.0592 3.21592C23.4401 3.04397 22.7719 3.2194 22.3166 3.67407L20.0201 5.97062L16.2124 2.16272C15.645 1.59574 14.7256 1.59574 14.1584 2.16272C13.5913 2.73008 13.5913 3.64947 14.1584 4.21664L17.966 8.02435ZM22.9723 7.12606L24.2381 12.2292L19.1258 10.9723L22.9723 7.12606Z" fill="#6B3A00"/>
<path d="M7.34663 36.3567C7.66633 36.6079 8.05689 36.7378 8.45114 36.7378C8.68138 36.7378 8.91297 36.6935 9.13236 36.6031L17.2679 33.2434C17.9096 32.9783 18.3556 32.4102 18.4605 31.7236C18.5655 31.0371 18.3097 30.3617 17.7764 29.9171L11.0242 24.2882C10.5302 23.8765 9.84941 23.7615 9.24758 23.9892C8.64594 24.2168 8.21103 24.7528 8.11324 25.3889C8.11324 25.3889 8.11305 25.3891 8.11305 25.3893L7.61908 28.5994L2.29692 27.7805C1.50301 27.6581 0.762532 28.2026 0.64054 28.995C0.518548 29.7878 1.06248 30.5294 1.85504 30.6514L7.17719 31.4703L6.68322 34.68C6.58582 35.3165 6.84007 35.9592 7.34663 36.3567ZM10.6828 27.7855L14.7215 31.1525L9.8556 33.1619L10.6828 27.7855Z" fill="#6B3A00"/>
</svg>
